<?xml version="1.0" encoding="utf-8"?>
<!-- Generator: Adobe Illustrator 23.1.0, SVG Export Plug-In . SVG Version: 6.00 Build 0)  -->
<svg version="1.1" id="Layer_1" xmlns="http://www.w3.org/2000/svg" xmlns:xlink="http://www.w3.org/1999/xlink" x="0px" y="0px"
	 viewBox="0 0 1000 1000" style="enable-background:new 0 0 1000 1000;" xml:space="preserve">
<style type="text/css">
	.st0{fill:none;stroke:#CF4999;stroke-width:4;stroke-miterlimit:10;}
	.st1{fill:#5286F7;}
	.st2{fill:#102451;}
	.st3{fill:#243F8D;}
	.st4{fill:#C4D1EB;}
	.st5{fill:#3269D8;}
	.st6{fill:#6A80BE;}
	.st7{fill:#5286F7;stroke:#102451;stroke-width:5;stroke-miterlimit:10;}
	.st8{fill:#243F8D;stroke:#102451;stroke-width:5;stroke-miterlimit:10;}
	.st9{fill:#C4D1EB;stroke:#102451;stroke-width:5;stroke-miterlimit:10;}
	.st10{fill:#3269D8;stroke:#102451;stroke-width:5;stroke-miterlimit:10;}
	.st11{fill:#6A80BE;stroke:#102451;stroke-width:5;stroke-miterlimit:10;}
</style>
<g>
	<g>
		<g>
			<path class="st1" d="M990.43,236.16c-45.43,42.39-99.84,75.26-160.08,95.44c-4.27-4.64-8.61-9.21-13.01-13.7
				c-31.17-31.86-65.65-60.49-102.86-85.31c41.93-8.61,85.34-13.14,129.82-13.14c20.37,0,40.51,0.95,60.39,2.81
				C933.89,225,962.51,229.67,990.43,236.16z"/>
		</g>
		<g>
			<path class="st2" d="M828.96,336.98l-2.04-2.22c-4.11-4.47-8.46-9.04-12.91-13.59c-30.98-31.66-65.33-60.16-102.11-84.69
				l-9.29-6.19l10.93-2.24c42.76-8.78,86.75-13.23,130.76-13.23c20.29,0,40.76,0.95,60.83,2.83c28.99,2.7,58.04,7.41,86.35,13.98
				l8.52,1.98l-6.39,5.96c-46.88,43.75-101.31,76.2-161.78,96.45L828.96,336.98z M726.33,235.02
				c33.83,23.43,65.53,50.18,94.34,79.62c3.78,3.86,7.49,7.74,11.05,11.57c55.27-18.93,105.34-48.34,148.98-87.47
				c-25.15-5.47-50.82-9.44-76.44-11.83c-19.78-1.85-39.96-2.79-59.96-2.79C804.66,224.12,765.03,227.79,726.33,235.02z"/>
		</g>
	</g>
	<g>
		<g>
			<path class="st1" d="M830.35,331.6c-18.67,6.26-37.88,11.31-57.56,15.02c15.6-8.48,30.48-18.09,44.55-28.71
				C821.74,322.4,826.09,326.96,830.35,331.6z"/>
		</g>
		<g>
			<path class="st2" d="M744.51,356.69l26.06-14.16c15.24-8.29,30.04-17.82,43.97-28.34l3.27-2.47l2.87,2.93
				c4.51,4.61,8.92,9.26,13.11,13.8l4.86,5.29l-6.81,2.28c-19.05,6.39-38.62,11.49-58.18,15.18L744.51,356.69z M816.86,324.08
				c-5.48,4.04-11.08,7.93-16.78,11.66c7.34-1.91,14.65-4.01,21.89-6.3C820.29,327.66,818.58,325.87,816.86,324.08z"/>
		</g>
	</g>
	<g>
		<g>
			<path class="st3" d="M916.11,465.32c-53.24,14.31-109.21,21.93-166.96,21.93c-65.61,0-128.91-9.84-188.52-28.14
				c53.24-14.31,109.21-21.93,166.96-21.93C793.2,437.18,856.5,447.02,916.11,465.32z"/>
		</g>
		<g>
			<path class="st2" d="M749.15,491.91c-64.74,0-128.62-9.54-189.89-28.34l-15.47-4.75l15.63-4.2
				c54.54-14.66,111.12-22.09,168.17-22.09c64.73,0,128.62,9.54,189.88,28.34l15.47,4.75l-15.63,4.2
				C862.78,484.48,806.2,491.91,749.15,491.91z M578.3,459.42c55.37,15.38,112.76,23.17,170.85,23.17
				c50.52,0,100.66-5.91,149.29-17.58c-55.37-15.38-112.76-23.17-170.85-23.17C677.07,441.84,626.93,447.75,578.3,459.42z"/>
		</g>
	</g>
	<g>
		<g>
			<path class="st4" d="M714.48,232.6c-63.15,12.97-122.93,35.2-177.82,65.24c-9.84,5.37-19.49,10.99-28.99,16.86
				c-19.77,12.17-38.81,25.4-57.08,39.63c-90.28-43.58-159.23-124.38-186.92-222.49c13.7-2.03,27.54-3.63,41.52-4.77
				c17.53-1.45,35.29-2.18,53.22-2.18c64.58,0,126.95,9.54,185.74,27.28C605.27,170.61,662.55,197.9,714.48,232.6z"/>
		</g>
		<g>
			<path class="st2" d="M451.17,359.79l-2.61-1.26c-92.52-44.67-161.55-126.83-189.37-225.42l-1.44-5.1l5.24-0.78
				c13.91-2.06,27.98-3.68,41.82-4.8c17.58-1.46,35.61-2.2,53.59-2.2c63.72,0,126.66,9.25,187.09,27.48
				c60.85,18.35,118.58,45.6,171.57,81.01l9.27,6.19l-10.92,2.24c-61.79,12.69-121.18,34.48-176.52,64.76
				c-9.54,5.2-19.22,10.83-28.78,16.74c-19.52,12.01-38.58,25.25-56.66,39.34L451.17,359.79z M269.64,135.69
				c27.74,92.83,93.16,170.19,180.38,213.18c17.67-13.64,36.22-26.47,55.2-38.14c9.7-5.99,19.53-11.71,29.21-16.99
				c52.88-28.93,109.4-50.23,168.17-63.36c-49.66-31.94-103.36-56.73-159.8-73.75c-59.55-17.97-121.59-27.08-184.4-27.08
				c-17.73,0-35.5,0.73-52.83,2.16C293.68,132.69,281.62,134.02,269.64,135.69z"/>
		</g>
	</g>
	<g>
		<g>
			<path class="st1" d="M817.35,317.91c-14.07,10.62-28.96,20.24-44.55,28.71c-50.11,27.22-107.55,42.69-168.62,42.69
				c-32.22,0-63.41-4.3-93.08-12.37c-21-5.7-41.24-13.3-60.5-22.6c18.26-14.24,37.3-27.47,57.08-39.63
				c9.5-5.87,19.16-11.5,28.99-16.86c54.9-30.04,114.67-52.27,177.82-65.24C751.7,257.42,786.17,286.04,817.35,317.91z"/>
		</g>
		<g>
			<path class="st2" d="M604.18,393.97c-31.99,0-63.71-4.22-94.3-12.54c-21.01-5.7-41.64-13.41-61.31-22.9l-6.75-3.26l5.91-4.61
				c18.35-14.31,37.7-27.74,57.5-39.93c9.7-5.99,19.53-11.71,29.21-16.99c56.15-30.72,116.42-52.83,179.12-65.71l1.91-0.39
				l1.62,1.08c37.32,24.89,72.17,53.8,103.6,85.92l3.7,3.79l-4.23,3.19c-14.3,10.8-29.49,20.58-45.13,29.09
				C722.93,379.01,663.86,393.97,604.18,393.97z M459.49,353.36c17.06,7.78,34.8,14.18,52.83,19.08
				c29.79,8.1,60.69,12.21,91.85,12.21c58.13,0,115.67-14.57,166.39-42.13c13.69-7.44,27.03-15.9,39.7-25.16
				c-29.53-29.68-62.05-56.51-96.75-79.8c-61.11,12.74-119.84,34.39-174.62,64.37c-9.54,5.2-19.22,10.83-28.78,16.74
				C492.76,329.35,475.76,341,459.49,353.36z"/>
		</g>
	</g>
	<g>
		<g>
			<path class="st4" d="M409.56,389.07c-0.24,0.2-0.5,0.45-0.75,0.67c-2.31,2.14-4.62,4.29-6.89,6.47c-0.47,0.43-0.93,0.86-1.38,1.3
				c-1.75,1.68-3.48,3.35-5.22,5.05c-0.61,0.58-1.21,1.17-1.81,1.77c-1.7,1.66-3.37,3.34-5.03,5.03
				c-4.68,4.68-9.26,9.45-13.77,14.29c-1.02,1.08-2.03,2.18-3.02,3.28c-1.1,1.17-2.2,2.37-3.26,3.56c-1.02,1.12-2.03,2.24-3.04,3.35
				c-1.99,2.22-3.95,4.45-5.91,6.71c-2.01,2.31-4.02,4.66-6,7.01c-2.46,2.93-4.92,5.87-7.32,8.83c-1.12,1.38-2.24,2.76-3.35,4.14
				c-3.07,3.86-6.13,7.77-9.13,11.7c-1.08,1.42-2.16,2.83-3.24,4.27c-1.77,2.4-3.56,4.79-5.31,7.21
				c3.95-32.87,10.38-64.98,19.12-96.11c15.61,1.14,31.38,1.71,47.29,1.71C397.58,389.31,403.58,389.24,409.56,389.07z"/>
		</g>
		<g>
			<path class="st2" d="M318.36,501.04l2.15-17.88c3.93-32.73,10.41-65.3,19.26-96.82l1.03-3.66l3.79,0.28
				c15.51,1.13,31.31,1.7,46.95,1.7c6.27,0,12.12-0.08,17.89-0.24l13.25-0.37l-10.1,8.58c-0.19,0.16-0.39,0.35-0.58,0.52
				c-2.31,2.14-4.6,4.26-6.85,6.43c-0.49,0.45-0.9,0.83-1.3,1.23c-1.82,1.74-3.54,3.4-5.26,5.09c-0.65,0.61-1.21,1.17-1.77,1.73
				c-1.71,1.67-3.36,3.32-5,5c-4.49,4.49-9.08,9.26-13.69,14.21c-1.02,1.08-2,2.15-2.96,3.22c-1.14,1.22-2.21,2.38-3.25,3.55
				c-1.06,1.16-2.06,2.26-3.05,3.37c-1.97,2.2-3.91,4.41-5.85,6.65c-2,2.3-4,4.62-5.95,6.95c-2.44,2.9-4.88,5.83-7.27,8.77
				l-3.35,4.13c-3.08,3.87-6.13,7.78-9.05,11.6l-0.18,0.24c-1.01,1.33-2.03,2.66-3.04,4.01l-1.74,2.35
				c-1.18,1.59-2.36,3.18-3.52,4.79L318.36,501.04z M347.73,392.51c-6.64,24.22-11.86,49.06-15.59,74.09
				c2.29-2.97,4.65-5.98,7.04-8.98l3.38-4.17c2.42-2.99,4.9-5.95,7.38-8.9c1.99-2.37,4.02-4.74,6.05-7.07
				c1.97-2.27,3.94-4.53,5.96-6.76c1.02-1.13,2.03-2.26,3.07-3.39c1.04-1.17,2.17-2.39,3.3-3.6c0.95-1.06,1.98-2.19,3.04-3.3
				c4.66-5,9.33-9.85,13.86-14.38c1.65-1.68,3.35-3.39,5.07-5.07c0.59-0.59,1.22-1.22,1.87-1.84c1.68-1.64,3.42-3.33,5.19-5.02
				c0.07-0.07,0.13-0.13,0.2-0.2c-1.96,0.02-3.95,0.02-5.98,0.02C376.96,393.97,362.23,393.48,347.73,392.51z"/>
		</g>
	</g>
	<g>
		<g>
			<path class="st3" d="M548.91,549.9c-20.72,5.81-42.6,8.93-65.18,8.93c-33.37,0-65.16-6.78-94.06-19.06
				c7.44-6.22,14.67-12.71,21.67-19.42c22.75-12.91,46.38-24.47,70.77-34.55C508.29,502.66,531,524.46,548.91,549.9z"/>
		</g>
		<g>
			<path class="st2" d="M483.73,563.48c-33.28,0-65.54-6.54-95.88-19.43l-7-2.98l5.83-4.88c7.28-6.09,14.49-12.56,21.44-19.21
				l0.42-0.4l0.5-0.29c22.96-13.03,46.95-24.74,71.29-34.8l2.25-0.93l2.05,1.32c26.82,17.28,49.73,39.26,68.09,65.33l3.79,5.39
				l-6.34,1.78C528.65,560.42,506.3,563.48,483.73,563.48z M398.52,538.33c27.12,10.51,55.75,15.83,85.21,15.83
				c19.45,0,38.74-2.36,57.42-7.03c-16.48-22.07-36.47-40.91-59.53-56.09c-23.04,9.63-45.72,20.74-67.49,33.07
				C409.04,528.97,403.81,533.74,398.52,538.33z"/>
		</g>
	</g>
	<g>
		<g>
			<path class="st5" d="M924.19,463.1c-2.68,0.76-5.37,1.49-8.07,2.22h-0.02c-59.61-18.3-122.91-28.14-188.52-28.14
				c-57.75,0-113.72,7.62-166.96,21.93h-0.02c-26.91,7.23-53.12,16.16-78.5,26.68c-24.39,10.08-48.02,21.63-70.77,34.55
				c-7.01,6.71-14.24,13.19-21.67,19.42c-14.4,12.09-29.59,23.25-45.48,33.45c-7.57,4.86-15.32,9.48-23.2,13.86
				c-5.03,2.83-10.14,5.55-15.3,8.16c-0.76,0.39-1.55,0.78-2.31,1.17c-0.04,0.34-0.07,0.65-0.13,0.97
				c-13.34,97.86-48.73,188.7-101.01,267.36c-0.02-1.04-0.02-2.11-0.02-3.17c0-65.63,9.84-128.96,28.16-188.59
				c5.63-18.39,12.07-36.43,19.29-54.08c-42.26,14.48-87.41,22.7-134.39,23.55c-2.74,0.06-5.48,0.07-8.22,0.07
				c-31.79,0-62.8-3.37-92.67-9.78c37.27-17.72,76.49-31.94,117.26-42.24c44.93-11.37,91.72-18,139.85-19.32
				c11.31-22.3,23.89-43.85,37.66-64.53c3.02-4.55,6.11-9.07,9.24-13.53c2.22-3.17,4.47-6.3,6.75-9.41
				c1.75-2.42,3.54-4.81,5.31-7.21c1.08-1.43,2.16-2.85,3.24-4.27c3-3.93,6.06-7.84,9.13-11.7c1.12-1.38,2.24-2.76,3.35-4.14
				c2.4-2.96,11.31-13.53,13.32-15.84c1.96-2.25,7.92-8.94,8.94-10.06c1.06-1.19,2.16-2.39,3.26-3.56
				c0.99-1.1,12.11-12.89,16.79-17.57c1.66-1.7,3.34-3.37,5.03-5.03c0.6-0.6,1.19-1.19,1.81-1.77c1.73-1.7,3.47-3.37,5.22-5.05
				c0.45-0.45,0.91-0.88,1.38-1.3c2.27-2.18,4.58-4.32,6.89-6.47c0.24-0.22,0.5-0.47,0.75-0.67c13.19-12.17,26.87-23.76,41.03-34.73
				c19.27,9.3,39.5,16.9,60.5,22.6c29.66,8.07,60.86,12.37,93.08,12.37c61.06,0,118.51-15.47,168.62-42.69
				c19.68-3.71,38.89-8.76,57.56-15.02C866.87,371.16,898.48,415.3,924.19,463.1z"/>
		</g>
		<g>
			<path class="st2" d="M197.83,879.76l-0.26-14.95c-0.02-1.07-0.02-2.16-0.02-3.25c0-64.79,9.54-128.7,28.36-189.96
				c4.63-15.13,9.9-30.28,15.7-45.15c-40.73,12.92-83.16,19.87-126.27,20.66c-2.76,0.06-5.53,0.07-8.3,0.07
				c-31.57,0-63.08-3.33-93.64-9.89L0,634.42l12.38-5.88c37.82-17.98,77.57-32.3,118.12-42.55c44.99-11.38,91.43-17.9,138.09-19.38
				c11.01-21.48,23.35-42.51,36.68-62.54c3.05-4.59,6.18-9.17,9.31-13.62c2.23-3.19,4.5-6.34,6.79-9.48
				c1.17-1.62,2.37-3.24,3.57-4.86l1.75-2.37c1.05-1.4,2.08-2.75,3.11-4.09l0.18-0.24c2.96-3.87,6.05-7.84,9.19-11.78l3.38-4.17
				c2.52-3.1,11.48-13.72,13.43-15.97c1.95-2.25,7.9-8.93,9.02-10.15c1.04-1.17,2.17-2.39,3.3-3.6
				c0.93-1.04,12.16-12.95,16.89-17.68c1.65-1.68,3.35-3.39,5.07-5.07c0.59-0.59,1.22-1.22,1.87-1.84c1.68-1.64,3.42-3.33,5.19-5.02
				c0.42-0.42,0.93-0.9,1.45-1.37c2.22-2.13,4.55-4.29,6.88-6.45c0.28-0.26,0.56-0.51,0.82-0.74c13.3-12.26,27.19-24.02,41.27-34.93
				l2.28-1.77l2.6,1.25c19.16,9.24,39.24,16.75,59.7,22.3c29.79,8.1,60.69,12.21,91.85,12.21c58.13,0,115.67-14.57,166.39-42.13
				l0.64-0.35l0.72-0.13c19.14-3.61,38.3-8.61,56.94-14.86l2.86-0.96l2.05,2.22c36.99,40.06,68.79,84.63,94.52,132.45l2.75,5.1
				l-5.57,1.59c-2.71,0.77-5.41,1.5-8.13,2.24l-0.6,0.16h-1.32l-0.69-0.21c-60.38-18.53-123.34-27.93-187.15-27.93
				c-56.24,0-112,7.33-165.75,21.77l-0.61,0.16c-26.32,7.1-52.33,15.96-77.33,26.33c-23.82,9.84-47.28,21.28-69.75,34.01
				c-6.97,6.66-14.19,13.12-21.48,19.22c-14.47,12.15-29.94,23.52-45.96,33.8c-7.5,4.82-15.39,9.54-23.45,14.02
				c-4.99,2.81-10.2,5.59-15.46,8.25l-0.13,0.06c-13.37,96.49-47.54,186.6-101.55,267.86L197.83,879.76z M257.84,611.17l-3.88,9.49
				c-7.18,17.58-13.62,35.64-19.14,53.68c-17.31,56.35-26.66,114.98-27.83,174.46c48.5-76.96,79.31-161.68,91.63-252.05l0.03-0.19
				c0.04-0.21,0.06-0.43,0.09-0.66l0.27-2.5l4.55-2.32c5.15-2.61,10.24-5.32,15.14-8.07c7.91-4.39,15.63-9.01,22.96-13.72
				c15.7-10.06,30.84-21.2,45.01-33.1c7.28-6.1,14.49-12.56,21.45-19.21l0.42-0.4l0.5-0.29c22.96-13.03,46.95-24.74,71.29-34.8
				c25.56-10.6,52.17-19.65,79.07-26.88l0.61-0.16c54.35-14.55,110.73-21.93,167.57-21.93c64.28,0,127.73,9.4,188.61,27.95
				c0.37-0.1,0.74-0.2,1.1-0.3c-24.37-44.32-54.07-85.73-88.34-123.21c-17.9,5.87-36.25,10.6-54.59,14.09
				c-51.93,28.07-110.76,42.91-170.2,42.91c-31.99,0-63.71-4.22-94.3-12.54c-20.08-5.45-39.81-12.73-58.69-21.65
				c-13.12,10.27-26.05,21.27-38.46,32.71l-0.14,0.13c-0.19,0.16-0.39,0.35-0.58,0.52c-2.31,2.14-4.6,4.26-6.85,6.43
				c-0.49,0.45-0.9,0.83-1.3,1.23c-1.82,1.74-3.54,3.4-5.26,5.09c-0.65,0.61-1.21,1.17-1.77,1.73c-1.71,1.67-3.36,3.32-5,5
				c-4.69,4.69-15.68,16.34-16.65,17.43c-1.14,1.22-2.21,2.38-3.25,3.55c-1.09,1.19-7.01,7.84-8.9,10.02
				c-2.04,2.34-10.95,12.92-13.22,15.72l-3.35,4.13c-3.08,3.87-6.13,7.78-9.05,11.6l-0.18,0.24c-1.01,1.33-2.03,2.66-3.04,4.01
				l-1.74,2.35c-1.18,1.59-2.36,3.18-3.52,4.79c-2.27,3.11-4.51,6.21-6.7,9.35c-3.09,4.39-6.17,8.91-9.18,13.43
				c-13.64,20.49-26.22,42.04-37.38,64.06l-1.25,2.47l-2.77,0.08c-46.9,1.29-93.61,7.74-138.83,19.18
				c-35.35,8.93-70.07,21-103.41,35.94c28.14,5.07,56.98,7.42,85.8,6.84c45.53-0.83,90.26-8.67,132.97-23.3L257.84,611.17z"/>
		</g>
	</g>
	<g>
		<g>
			<circle class="st6" cx="863.96" cy="251.12" r="11.5"/>
		</g>
		<g>
			<path class="st2" d="M863.96,267.28c-8.91,0-16.16-7.25-16.16-16.16c0-8.91,7.25-16.16,16.16-16.16
				c8.91,0,16.16,7.25,16.16,16.16C880.12,260.03,872.87,267.28,863.96,267.28z M863.96,244.27c-3.77,0-6.85,3.07-6.85,6.85
				c0,3.77,3.07,6.85,6.85,6.85c3.77,0,6.85-3.07,6.85-6.85C870.8,247.34,867.73,244.27,863.96,244.27z"/>
		</g>
	</g>
</g>
</svg>
